<svg width="32" height="32" viewBox="0 0 32 32" fill="none" xmlns="http://www.w3.org/2000/svg">
<path d="M16.0001 29.3337C14.1779 29.3337 12.4556 28.9837 10.8334 28.2837C9.21119 27.5837 7.79453 26.6281 6.58341 25.417C5.3723 24.2059 4.41675 22.7892 3.71675 21.167C3.01675 19.5448 2.66675 17.8225 2.66675 16.0003C2.66675 14.1559 3.01675 12.4281 3.71675 10.817C4.41675 9.20588 5.3723 7.79477 6.58341 6.58366C7.79453 5.37255 9.21119 4.41699 10.8334 3.71699C12.4556 3.01699 14.1779 2.66699 16.0001 2.66699C17.8445 2.66699 19.5723 3.01699 21.1834 3.71699C22.7945 4.41699 24.2056 5.37255 25.4167 6.58366C26.6279 7.79477 27.5834 9.20588 28.2834 10.817C28.9834 12.4281 29.3334 14.1559 29.3334 16.0003C29.3334 17.8225 28.9834 19.5448 28.2834 21.167C27.5834 22.7892 26.6279 24.2059 25.4167 25.417C24.2056 26.6281 22.7945 27.5837 21.1834 28.2837C19.5723 28.9837 17.8445 29.3337 16.0001 29.3337ZM16.0001 26.6003C16.5779 25.8003 17.0779 24.967 17.5001 24.1003C17.9223 23.2337 18.2667 22.3114 18.5334 21.3337H13.4667C13.7334 22.3114 14.0779 23.2337 14.5001 24.1003C14.9223 24.967 15.4223 25.8003 16.0001 26.6003ZM12.5334 26.067C12.1334 25.3337 11.7834 24.5725 11.4834 23.7837C11.1834 22.9948 10.9334 22.1781 10.7334 21.3337H6.80008C7.44453 22.4448 8.25008 23.4114 9.21675 24.2337C10.1834 25.0559 11.289 25.667 12.5334 26.067ZM19.4667 26.067C20.7112 25.667 21.8167 25.0559 22.7834 24.2337C23.7501 23.4114 24.5556 22.4448 25.2001 21.3337H21.2667C21.0667 22.1781 20.8167 22.9948 20.5167 23.7837C20.2167 24.5725 19.8667 25.3337 19.4667 26.067ZM5.66675 18.667H10.2001C10.1334 18.2225 10.0834 17.7837 10.0501 17.3503C10.0167 16.917 10.0001 16.467 10.0001 16.0003C10.0001 15.5337 10.0167 15.0837 10.0501 14.6503C10.0834 14.217 10.1334 13.7781 10.2001 13.3337H5.66675C5.55564 13.7781 5.4723 14.217 5.41675 14.6503C5.36119 15.0837 5.33341 15.5337 5.33341 16.0003C5.33341 16.467 5.36119 16.917 5.41675 17.3503C5.4723 17.7837 5.55564 18.2225 5.66675 18.667ZM12.8667 18.667H19.1334C19.2001 18.2225 19.2501 17.7837 19.2834 17.3503C19.3167 16.917 19.3334 16.467 19.3334 16.0003C19.3334 15.5337 19.3167 15.0837 19.2834 14.6503C19.2501 14.217 19.2001 13.7781 19.1334 13.3337H12.8667C12.8001 13.7781 12.7501 14.217 12.7167 14.6503C12.6834 15.0837 12.6667 15.5337 12.6667 16.0003C12.6667 16.467 12.6834 16.917 12.7167 17.3503C12.7501 17.7837 12.8001 18.2225 12.8667 18.667ZM21.8001 18.667H26.3334C26.4445 18.2225 26.5279 17.7837 26.5834 17.3503C26.639 16.917 26.6667 16.467 26.6667 16.0003C26.6667 15.5337 26.639 15.0837 26.5834 14.6503C26.5279 14.217 26.4445 13.7781 26.3334 13.3337H21.8001C21.8667 13.7781 21.9167 14.217 21.9501 14.6503C21.9834 15.0837 22.0001 15.5337 22.0001 16.0003C22.0001 16.467 21.9834 16.917 21.9501 17.3503C21.9167 17.7837 21.8667 18.2225 21.8001 18.667ZM21.2667 10.667H25.2001C24.5556 9.55588 23.7501 8.58921 22.7834 7.76699C21.8167 6.94477 20.7112 6.33366 19.4667 5.93366C19.8667 6.66699 20.2167 7.4281 20.5167 8.21699C20.8167 9.00588 21.0667 9.82255 21.2667 10.667ZM13.4667 10.667H18.5334C18.2667 9.68921 17.9223 8.76699 17.5001 7.90033C17.0779 7.03366 16.5779 6.20033 16.0001 5.40033C15.4223 6.20033 14.9223 7.03366 14.5001 7.90033C14.0779 8.76699 13.7334 9.68921 13.4667 10.667ZM6.80008 10.667H10.7334C10.9334 9.82255 11.1834 9.00588 11.4834 8.21699C11.7834 7.4281 12.1334 6.66699 12.5334 5.93366C11.289 6.33366 10.1834 6.94477 9.21675 7.76699C8.25008 8.58921 7.44453 9.55588 6.80008 10.667Z" fill="#D1D5DB"/>
</svg>
